<mxfile host="app.diagrams.net" agent="Mozilla/5.0 (Windows NT 10.0; Win64; x64) AppleWebKit/537.36 (KHTML, like Gecko) Chrome/131.0.0.0 Safari/537.36" version="26.0.5">
  <diagram name="페이지-1" id="UDInxuguwsQqlwge9s1g">
    <mxGraphModel dx="2312" dy="1461" grid="0" gridSize="10" guides="1" tooltips="1" connect="1" arrows="1" fold="1" page="0" pageScale="1" pageWidth="827" pageHeight="1169" math="0" shadow="0">
      <root>
        <mxCell id="0" />
        <mxCell id="1" parent="0" />
        <mxCell id="vPj1Nk95axOIVskunoqk-61" value="" style="rounded=1;whiteSpace=wrap;html=1;fillColor=none;dashed=1;fillStyle=auto;gradientColor=none;strokeColor=#D1E7DD;strokeWidth=10;opacity=40;perimeterSpacing=0;glass=0;" vertex="1" parent="1">
          <mxGeometry x="195" y="-129" width="542" height="297" as="geometry" />
        </mxCell>
        <mxCell id="vPj1Nk95axOIVskunoqk-59" value="" style="rounded=1;whiteSpace=wrap;html=1;fillColor=none;dashed=1;strokeColor=#E6E6FA;strokeWidth=10;" vertex="1" parent="1">
          <mxGeometry x="-137" y="-247" width="542" height="297" as="geometry" />
        </mxCell>
        <mxCell id="vPj1Nk95axOIVskunoqk-27" value="&lt;font style=&quot;font-size: 10px;&quot;&gt;Code Push&lt;/font&gt;" style="edgeStyle=none;curved=1;rounded=0;orthogonalLoop=1;jettySize=auto;html=1;exitX=1;exitY=0.25;exitDx=0;exitDy=0;entryX=0;entryY=0.25;entryDx=0;entryDy=0;fontSize=12;startSize=8;endSize=8;" edge="1" parent="1" source="vPj1Nk95axOIVskunoqk-1" target="vPj1Nk95axOIVskunoqk-2">
          <mxGeometry relative="1" as="geometry" />
        </mxCell>
        <mxCell id="vPj1Nk95axOIVskunoqk-29" style="edgeStyle=none;curved=1;rounded=0;orthogonalLoop=1;jettySize=auto;html=1;exitX=0.25;exitY=0;exitDx=0;exitDy=0;entryX=0.25;entryY=1;entryDx=0;entryDy=0;fontSize=12;startSize=8;endSize=8;" edge="1" parent="1" source="vPj1Nk95axOIVskunoqk-1" target="vPj1Nk95axOIVskunoqk-6">
          <mxGeometry relative="1" as="geometry" />
        </mxCell>
        <mxCell id="vPj1Nk95axOIVskunoqk-49" value="&lt;font style=&quot;font-size: 10px;&quot;&gt;DNS&lt;/font&gt;&lt;div&gt;&lt;font style=&quot;font-size: 10px;&quot;&gt;Configuration&lt;/font&gt;&lt;/div&gt;&lt;div&gt;&lt;font style=&quot;font-size: 10px;&quot;&gt;Updates&lt;/font&gt;&lt;/div&gt;" style="edgeLabel;html=1;align=center;verticalAlign=middle;resizable=0;points=[];fontSize=12;" vertex="1" connectable="0" parent="vPj1Nk95axOIVskunoqk-29">
          <mxGeometry x="-0.0389" y="2" relative="1" as="geometry">
            <mxPoint as="offset" />
          </mxGeometry>
        </mxCell>
        <mxCell id="vPj1Nk95axOIVskunoqk-1" value="Developer" style="rounded=0;whiteSpace=wrap;html=1;fillColor=#32CD32;" vertex="1" parent="1">
          <mxGeometry x="263" y="367" width="120" height="60" as="geometry" />
        </mxCell>
        <mxCell id="vPj1Nk95axOIVskunoqk-26" style="edgeStyle=none;curved=1;rounded=0;orthogonalLoop=1;jettySize=auto;html=1;exitX=0.75;exitY=0;exitDx=0;exitDy=0;entryX=0.75;entryY=1;entryDx=0;entryDy=0;fontSize=12;startSize=8;endSize=8;" edge="1" parent="1" source="vPj1Nk95axOIVskunoqk-2" target="vPj1Nk95axOIVskunoqk-4">
          <mxGeometry relative="1" as="geometry" />
        </mxCell>
        <mxCell id="vPj1Nk95axOIVskunoqk-44" value="&lt;font style=&quot;font-size: 10px;&quot;&gt;Pipeline&lt;/font&gt;&lt;div&gt;&lt;font style=&quot;font-size: 10px;&quot;&gt;Trigger&lt;/font&gt;&lt;/div&gt;" style="edgeLabel;html=1;align=center;verticalAlign=middle;resizable=0;points=[];fontSize=12;" vertex="1" connectable="0" parent="vPj1Nk95axOIVskunoqk-26">
          <mxGeometry x="0.3532" y="1" relative="1" as="geometry">
            <mxPoint y="34" as="offset" />
          </mxGeometry>
        </mxCell>
        <mxCell id="vPj1Nk95axOIVskunoqk-28" value="&lt;font style=&quot;font-size: 10px;&quot;&gt;Code Review /&lt;/font&gt;&lt;div&gt;&lt;font style=&quot;font-size: 10px;&quot;&gt;Pull Requests&lt;/font&gt;&lt;/div&gt;" style="edgeStyle=none;curved=1;rounded=0;orthogonalLoop=1;jettySize=auto;html=1;exitX=0;exitY=0.75;exitDx=0;exitDy=0;entryX=1;entryY=0.75;entryDx=0;entryDy=0;fontSize=12;startSize=8;endSize=8;" edge="1" parent="1" source="vPj1Nk95axOIVskunoqk-2" target="vPj1Nk95axOIVskunoqk-1">
          <mxGeometry x="0.0005" relative="1" as="geometry">
            <mxPoint as="offset" />
          </mxGeometry>
        </mxCell>
        <mxCell id="vPj1Nk95axOIVskunoqk-2" value="Github" style="whiteSpace=wrap;html=1;rounded=0;fillColor=#32CD32;" vertex="1" parent="1">
          <mxGeometry x="594" y="367" width="120" height="60" as="geometry" />
        </mxCell>
        <mxCell id="vPj1Nk95axOIVskunoqk-24" style="edgeStyle=none;curved=1;rounded=0;orthogonalLoop=1;jettySize=auto;html=1;exitX=0.75;exitY=0;exitDx=0;exitDy=0;entryX=0.75;entryY=1;entryDx=0;entryDy=0;fontSize=12;startSize=8;endSize=8;" edge="1" parent="1" source="vPj1Nk95axOIVskunoqk-4" target="vPj1Nk95axOIVskunoqk-10">
          <mxGeometry relative="1" as="geometry" />
        </mxCell>
        <mxCell id="vPj1Nk95axOIVskunoqk-42" value="&lt;span style=&quot;font-size: 10px;&quot;&gt;Deployment&lt;/span&gt;&lt;div&gt;&lt;span style=&quot;font-size: 10px;&quot;&gt;Update&lt;/span&gt;&lt;/div&gt;" style="edgeLabel;html=1;align=center;verticalAlign=middle;resizable=0;points=[];fontSize=12;" vertex="1" connectable="0" parent="vPj1Nk95axOIVskunoqk-24">
          <mxGeometry x="-0.2817" relative="1" as="geometry">
            <mxPoint as="offset" />
          </mxGeometry>
        </mxCell>
        <mxCell id="vPj1Nk95axOIVskunoqk-25" style="edgeStyle=none;curved=1;rounded=0;orthogonalLoop=1;jettySize=auto;html=1;exitX=0.25;exitY=1;exitDx=0;exitDy=0;entryX=0.25;entryY=0;entryDx=0;entryDy=0;fontSize=12;startSize=8;endSize=8;" edge="1" parent="1" source="vPj1Nk95axOIVskunoqk-4" target="vPj1Nk95axOIVskunoqk-2">
          <mxGeometry relative="1" as="geometry" />
        </mxCell>
        <mxCell id="vPj1Nk95axOIVskunoqk-51" value="&lt;font style=&quot;font-size: 10px;&quot;&gt;Status&lt;/font&gt;&lt;div&gt;&lt;font style=&quot;font-size: 10px;&quot;&gt;Updates /&lt;/font&gt;&lt;/div&gt;&lt;div&gt;&lt;font style=&quot;font-size: 10px;&quot;&gt;Commit&lt;/font&gt;&lt;/div&gt;&lt;div&gt;&lt;font style=&quot;font-size: 10px;&quot;&gt;Reports&lt;/font&gt;&lt;/div&gt;" style="edgeLabel;html=1;align=center;verticalAlign=middle;resizable=0;points=[];fontSize=12;" vertex="1" connectable="0" parent="vPj1Nk95axOIVskunoqk-25">
          <mxGeometry x="-0.0731" y="2" relative="1" as="geometry">
            <mxPoint as="offset" />
          </mxGeometry>
        </mxCell>
        <mxCell id="vPj1Nk95axOIVskunoqk-4" value="CI/CD" style="whiteSpace=wrap;html=1;rounded=0;fillColor=#FF6347;" vertex="1" parent="1">
          <mxGeometry x="594" y="187" width="120" height="60" as="geometry" />
        </mxCell>
        <mxCell id="vPj1Nk95axOIVskunoqk-30" style="edgeStyle=none;curved=1;rounded=0;orthogonalLoop=1;jettySize=auto;html=1;exitX=0.75;exitY=1;exitDx=0;exitDy=0;entryX=0.75;entryY=0;entryDx=0;entryDy=0;fontSize=12;startSize=8;endSize=8;" edge="1" parent="1" source="vPj1Nk95axOIVskunoqk-6" target="vPj1Nk95axOIVskunoqk-1">
          <mxGeometry relative="1" as="geometry" />
        </mxCell>
        <mxCell id="vPj1Nk95axOIVskunoqk-50" value="&lt;font style=&quot;font-size: 10px;&quot;&gt;Feedback /&lt;/font&gt;&lt;div&gt;&lt;font style=&quot;font-size: 10px;&quot;&gt;Errors&lt;/font&gt;&lt;/div&gt;" style="edgeLabel;html=1;align=center;verticalAlign=middle;resizable=0;points=[];fontSize=12;" vertex="1" connectable="0" parent="vPj1Nk95axOIVskunoqk-30">
          <mxGeometry x="-0.3315" y="1" relative="1" as="geometry">
            <mxPoint as="offset" />
          </mxGeometry>
        </mxCell>
        <mxCell id="vPj1Nk95axOIVskunoqk-31" value="&lt;font style=&quot;font-size: 10px;&quot;&gt;IP Address&lt;/font&gt;&lt;div&gt;&lt;font style=&quot;font-size: 10px;&quot;&gt;Resolution&lt;/font&gt;&lt;/div&gt;" style="edgeStyle=none;curved=1;rounded=0;orthogonalLoop=1;jettySize=auto;html=1;exitX=0.25;exitY=0;exitDx=0;exitDy=0;entryX=0.25;entryY=1;entryDx=0;entryDy=0;fontSize=12;startSize=8;endSize=8;" edge="1" parent="1" source="vPj1Nk95axOIVskunoqk-6" target="vPj1Nk95axOIVskunoqk-8">
          <mxGeometry relative="1" as="geometry" />
        </mxCell>
        <mxCell id="vPj1Nk95axOIVskunoqk-6" value="DNS Routing" style="whiteSpace=wrap;html=1;rounded=0;fillColor=#87CEFA;" vertex="1" parent="1">
          <mxGeometry x="263" y="84" width="120" height="60" as="geometry" />
        </mxCell>
        <mxCell id="vPj1Nk95axOIVskunoqk-18" value="&lt;font style=&quot;font-size: 10px;&quot;&gt;HTTP/HTTPS&amp;nbsp;&lt;/font&gt;&lt;span style=&quot;font-size: 10px; background-color: light-dark(#ffffff, var(--ge-dark-color, #121212)); color: light-dark(rgb(0, 0, 0), rgb(255, 255, 255));&quot;&gt;Response&lt;/span&gt;" style="edgeStyle=none;curved=1;rounded=0;orthogonalLoop=1;jettySize=auto;html=1;exitX=0;exitY=0.75;exitDx=0;exitDy=0;entryX=1;entryY=0.75;entryDx=0;entryDy=0;fontSize=12;startSize=8;endSize=8;" edge="1" parent="1" source="vPj1Nk95axOIVskunoqk-8" target="vPj1Nk95axOIVskunoqk-13">
          <mxGeometry x="0.1365" y="19" relative="1" as="geometry">
            <mxPoint as="offset" />
          </mxGeometry>
        </mxCell>
        <mxCell id="vPj1Nk95axOIVskunoqk-21" value="&lt;font style=&quot;font-size: 10px;&quot;&gt;Traffic Forwarding&lt;/font&gt;" style="edgeStyle=none;curved=1;rounded=0;orthogonalLoop=1;jettySize=auto;html=1;exitX=1;exitY=0.25;exitDx=0;exitDy=0;entryX=0;entryY=0.25;entryDx=0;entryDy=0;fontSize=12;startSize=8;endSize=8;" edge="1" parent="1" source="vPj1Nk95axOIVskunoqk-8" target="vPj1Nk95axOIVskunoqk-10">
          <mxGeometry relative="1" as="geometry" />
        </mxCell>
        <mxCell id="vPj1Nk95axOIVskunoqk-32" value="&lt;font style=&quot;font-size: 10px;&quot;&gt;Domain&lt;/font&gt;&lt;div&gt;&lt;font style=&quot;font-size: 10px;&quot;&gt;Name&lt;/font&gt;&lt;/div&gt;&lt;div&gt;&lt;font style=&quot;font-size: 10px;&quot;&gt;Query&lt;/font&gt;&lt;/div&gt;" style="edgeStyle=none;curved=1;rounded=0;orthogonalLoop=1;jettySize=auto;html=1;exitX=0.75;exitY=1;exitDx=0;exitDy=0;entryX=0.75;entryY=0;entryDx=0;entryDy=0;fontSize=12;startSize=8;endSize=8;" edge="1" parent="1" source="vPj1Nk95axOIVskunoqk-8" target="vPj1Nk95axOIVskunoqk-6">
          <mxGeometry relative="1" as="geometry" />
        </mxCell>
        <mxCell id="vPj1Nk95axOIVskunoqk-8" value="Domain Server" style="whiteSpace=wrap;html=1;rounded=0;fillColor=#87CEFA;" vertex="1" parent="1">
          <mxGeometry x="263" y="-96" width="120" height="60" as="geometry" />
        </mxCell>
        <mxCell id="vPj1Nk95axOIVskunoqk-22" style="edgeStyle=none;curved=1;rounded=0;orthogonalLoop=1;jettySize=auto;html=1;fontSize=12;startSize=8;endSize=8;entryX=1;entryY=0.75;entryDx=0;entryDy=0;exitX=0;exitY=0.75;exitDx=0;exitDy=0;" edge="1" parent="1" source="vPj1Nk95axOIVskunoqk-10" target="vPj1Nk95axOIVskunoqk-8">
          <mxGeometry relative="1" as="geometry">
            <mxPoint x="584" y="71" as="sourcePoint" />
            <mxPoint x="396" y="52" as="targetPoint" />
          </mxGeometry>
        </mxCell>
        <mxCell id="vPj1Nk95axOIVskunoqk-39" value="&lt;font style=&quot;font-size: 10px;&quot;&gt;Application Response&lt;/font&gt;" style="edgeLabel;html=1;align=center;verticalAlign=middle;resizable=0;points=[];fontSize=12;" vertex="1" connectable="0" parent="vPj1Nk95axOIVskunoqk-22">
          <mxGeometry x="-0.231" y="2" relative="1" as="geometry">
            <mxPoint as="offset" />
          </mxGeometry>
        </mxCell>
        <mxCell id="vPj1Nk95axOIVskunoqk-23" style="edgeStyle=none;curved=1;rounded=0;orthogonalLoop=1;jettySize=auto;html=1;exitX=0.25;exitY=1;exitDx=0;exitDy=0;entryX=0.25;entryY=0;entryDx=0;entryDy=0;fontSize=12;startSize=8;endSize=8;" edge="1" parent="1" source="vPj1Nk95axOIVskunoqk-10" target="vPj1Nk95axOIVskunoqk-4">
          <mxGeometry relative="1" as="geometry" />
        </mxCell>
        <mxCell id="vPj1Nk95axOIVskunoqk-41" value="&lt;span style=&quot;font-size: 10px;&quot;&gt;Deployment&lt;/span&gt;&lt;div&gt;&lt;span style=&quot;font-size: 10px;&quot;&gt;Trigger&lt;/span&gt;&lt;/div&gt;" style="edgeLabel;html=1;align=center;verticalAlign=middle;resizable=0;points=[];fontSize=12;" vertex="1" connectable="0" parent="vPj1Nk95axOIVskunoqk-23">
          <mxGeometry x="0.0913" relative="1" as="geometry">
            <mxPoint as="offset" />
          </mxGeometry>
        </mxCell>
        <mxCell id="vPj1Nk95axOIVskunoqk-10" value="VPS&lt;div&gt;virtual private server&lt;/div&gt;" style="whiteSpace=wrap;html=1;rounded=0;fillColor=#FF6347;" vertex="1" parent="1">
          <mxGeometry x="594" y="7" width="120" height="60" as="geometry" />
        </mxCell>
        <mxCell id="vPj1Nk95axOIVskunoqk-14" value="&lt;font style=&quot;font-size: 10px;&quot;&gt;HTTP/HTTPS&amp;nbsp;&lt;/font&gt;&lt;span style=&quot;font-size: 10px; background-color: light-dark(#ffffff, var(--ge-dark-color, #121212)); color: light-dark(rgb(0, 0, 0), rgb(255, 255, 255));&quot;&gt;Request&lt;/span&gt;" style="edgeStyle=none;curved=1;rounded=0;orthogonalLoop=1;jettySize=auto;html=1;fontSize=12;startSize=8;endSize=8;exitX=1;exitY=0.25;exitDx=0;exitDy=0;entryX=0;entryY=0.25;entryDx=0;entryDy=0;" edge="1" parent="1" source="vPj1Nk95axOIVskunoqk-13" target="vPj1Nk95axOIVskunoqk-8">
          <mxGeometry x="0.1041" y="21" relative="1" as="geometry">
            <mxPoint as="offset" />
          </mxGeometry>
        </mxCell>
        <mxCell id="vPj1Nk95axOIVskunoqk-16" value="" style="edgeStyle=none;curved=1;rounded=0;orthogonalLoop=1;jettySize=auto;html=1;fontSize=12;startSize=8;endSize=8;" edge="1" parent="1" source="vPj1Nk95axOIVskunoqk-13" target="vPj1Nk95axOIVskunoqk-15">
          <mxGeometry relative="1" as="geometry" />
        </mxCell>
        <mxCell id="vPj1Nk95axOIVskunoqk-38" value="&lt;font style=&quot;font-size: 10px;&quot;&gt;User Feedback&lt;/font&gt;" style="edgeLabel;html=1;align=center;verticalAlign=middle;resizable=0;points=[];fontSize=12;" vertex="1" connectable="0" parent="vPj1Nk95axOIVskunoqk-16">
          <mxGeometry x="0.0278" relative="1" as="geometry">
            <mxPoint as="offset" />
          </mxGeometry>
        </mxCell>
        <mxCell id="vPj1Nk95axOIVskunoqk-13" value="Clients&lt;div&gt;Users&lt;/div&gt;" style="whiteSpace=wrap;html=1;rounded=0;fillColor=#FFD700;" vertex="1" parent="1">
          <mxGeometry x="-56" y="-233" width="120" height="60" as="geometry" />
        </mxCell>
        <mxCell id="vPj1Nk95axOIVskunoqk-17" value="&lt;font style=&quot;font-size: 10px;&quot;&gt;Feedback&lt;/font&gt;&lt;div&gt;&lt;font style=&quot;font-size: 10px;&quot;&gt;Delivery&lt;/font&gt;&lt;/div&gt;" style="edgeStyle=none;curved=1;rounded=0;orthogonalLoop=1;jettySize=auto;html=1;exitX=0.5;exitY=1;exitDx=0;exitDy=0;entryX=0;entryY=0.5;entryDx=0;entryDy=0;fontSize=12;startSize=8;endSize=8;" edge="1" parent="1" source="vPj1Nk95axOIVskunoqk-15" target="vPj1Nk95axOIVskunoqk-1">
          <mxGeometry relative="1" as="geometry" />
        </mxCell>
        <mxCell id="vPj1Nk95axOIVskunoqk-15" value="Feedback" style="whiteSpace=wrap;html=1;rounded=0;fillColor=#FFD700;" vertex="1" parent="1">
          <mxGeometry x="-56" y="-53" width="120" height="60" as="geometry" />
        </mxCell>
        <mxCell id="vPj1Nk95axOIVskunoqk-33" value="&lt;font style=&quot;font-size: 10px;&quot;&gt;Pipeline&lt;/font&gt;&lt;div&gt;&lt;font style=&quot;font-size: 10px;&quot;&gt;Feedback&lt;/font&gt;&lt;/div&gt;" style="edgeStyle=none;curved=1;rounded=0;orthogonalLoop=1;jettySize=auto;html=1;exitX=0;exitY=0.867;exitDx=0;exitDy=0;entryX=0.883;entryY=0;entryDx=0;entryDy=0;fontSize=12;startSize=8;endSize=8;exitPerimeter=0;entryPerimeter=0;" edge="1" parent="1" source="vPj1Nk95axOIVskunoqk-4" target="vPj1Nk95axOIVskunoqk-1">
          <mxGeometry x="0.106" y="-19" relative="1" as="geometry">
            <mxPoint as="offset" />
          </mxGeometry>
        </mxCell>
        <mxCell id="vPj1Nk95axOIVskunoqk-34" value="" style="edgeStyle=none;curved=1;rounded=0;orthogonalLoop=1;jettySize=auto;html=1;exitX=0.992;exitY=0.15;exitDx=0;exitDy=0;fontSize=12;startSize=8;endSize=8;entryX=0.092;entryY=1;entryDx=0;entryDy=0;entryPerimeter=0;exitPerimeter=0;" edge="1" parent="1" source="vPj1Nk95axOIVskunoqk-1" target="vPj1Nk95axOIVskunoqk-4">
          <mxGeometry x="0.0862" y="-27" relative="1" as="geometry">
            <mxPoint x="526" y="244" as="targetPoint" />
            <mxPoint as="offset" />
          </mxGeometry>
        </mxCell>
        <mxCell id="vPj1Nk95axOIVskunoqk-48" value="&lt;span style=&quot;font-size: 10px;&quot;&gt;Pipeline&lt;/span&gt;&lt;div&gt;&lt;span style=&quot;font-size: 10px;&quot;&gt;Configuration&lt;/span&gt;&lt;/div&gt;" style="edgeLabel;html=1;align=center;verticalAlign=middle;resizable=0;points=[];fontSize=12;" vertex="1" connectable="0" parent="vPj1Nk95axOIVskunoqk-34">
          <mxGeometry x="0.1342" y="-4" relative="1" as="geometry">
            <mxPoint x="14" y="6" as="offset" />
          </mxGeometry>
        </mxCell>
        <mxCell id="vPj1Nk95axOIVskunoqk-52" value="" style="rounded=1;whiteSpace=wrap;html=1;fillColor=none;dashed=1;strokeWidth=11;strokeColor=#FFDFD3;" vertex="1" parent="1">
          <mxGeometry x="195" y="174" width="542" height="297" as="geometry" />
        </mxCell>
        <mxCell id="vPj1Nk95axOIVskunoqk-55" value="CI/CI Workflow" style="text;html=1;align=center;verticalAlign=middle;whiteSpace=wrap;rounded=0;fontSize=16;fillColor=#FFDFD3;" vertex="1" parent="1">
          <mxGeometry x="409.5" y="471" width="113" height="30" as="geometry" />
        </mxCell>
        <mxCell id="vPj1Nk95axOIVskunoqk-60" value="User Interaction" style="text;html=1;align=center;verticalAlign=middle;whiteSpace=wrap;rounded=0;fontSize=16;fillColor=#E6E6FA;" vertex="1" parent="1">
          <mxGeometry x="55" y="-277" width="158" height="30" as="geometry" />
        </mxCell>
        <mxCell id="vPj1Nk95axOIVskunoqk-62" value="Infrastructure" style="text;html=1;align=center;verticalAlign=middle;whiteSpace=wrap;rounded=0;fontSize=16;fillColor=#D1E7DD;" vertex="1" parent="1">
          <mxGeometry x="737" y="4.5" width="113" height="30" as="geometry" />
        </mxCell>
      </root>
    </mxGraphModel>
  </diagram>
</mxfile>
